<svg id="Cacaosvg" data-name="Calque 1" xmlns="http://www.w3.org/2000/svg" xmlns:xlink="http://www.w3.org/1999/xlink" viewBox="0 0 78.95 147.59">
<defs><style>.cls-1{fill:url(#Dégradé_sans_nom_32);}.cls-2{fill:#452900;}.cls-3{fill:#6b2638;}.cls-4{fill:url(#Dégradé_sans_nom_16);}.cls-5{fill:url(#Dégradé_sans_nom_37);}.cls-6{fill:url(#Dégradé_sans_nom_15);}</style>
<linearGradient id="Dégradé_sans_nom_32" x1="33.29" y1="33.63" x2="107.91" y2="33.63" gradientUnits="userSpaceOnUse">
<stop offset="0" stop-color="#a9aaae"/><stop offset="0.19" stop-color="#4d330e"/><stop offset="0.61" stop-color="#452900"/>
<stop offset="1" stop-color="#121e12"/>
</linearGradient><linearGradient id="Dégradé_sans_nom_16" x1="33.29" y1="37.46" x2="66.75" y2="37.46" gradientUnits="userSpaceOnUse">
<stop offset="0" stop-color="#a9aaae"/><stop offset="0.8" stop-color="#452900"/><stop offset="1" stop-color="#121e12"/></linearGradient>
<linearGradient id="Dégradé_sans_nom_37" x1="41.03" y1="12.88" x2="74.67" y2="12.88" gradientUnits="userSpaceOnUse">
<stop offset="0" stop-color="#a9aaae"/><stop offset="0.74" stop-color="#452900"/>
<stop offset="1" stop-color="#121e12"/></linearGradient>
<linearGradient id="Dégradé_sans_nom_15" x1="84.09" y1="6.45" x2="107.78" y2="6.45" gradientUnits="userSpaceOnUse"><stop offset="0" stop-color="#a9aaae"/>
<stop offset="0.73" stop-color="#452900"/><stop offset="1" stop-color="#121e12"/></linearGradient></defs>

<title>Cacaosvg</title>

<path id="Branche" class="cls-1" d="M107.91,0,99,7.17a27.27,27.27,0,0,0-6.47,6.29,40.42,40.42,0,0,0-3.24,5.46c-2,4-1.73,5.11-3.43,6.68s-2.89,1.51-3.44,3c-.36,1-.15,1.85.4,3.64,1.78,5.79,2.74,6.91,2.23,8.09-.4.92-1.7,1.92-5.87,2V38.94a7.2,7.2,0,0,0-3-3.43c-3.17-1.73-6.82-.07-8.29.6-2.54,1.16-2.94,2.22-6.48,5.26-4.37,3.77-4.58,2.86-8.49,6.27a43,43,0,0,0-7.69,8.29c-.36.54-1.6,2.4-3.43,4.86A26.63,26.63,0,0,1,39.15,64a13.91,13.91,0,0,1-5.86,3.24V14.34c2.23-1.82,3.89-3.38,5.05-4.52S40.12,8,41.17,8c1.34,0,1.68,1.31,3.23,1.42a4.67,4.67,0,0,0,3-1.22c1-.79.86-1.16,2.22-2.42,1-1,1.57-1.46,2.43-1.62a12.54,12.54,0,0,1,2.63.2c1.42,1,2.19,1,2.63.81.8-.35.84-1.38,1.82-3A11.58,11.58,0,0,1,60.79,0Z" transform="translate(-33.29 0.98)"/>
<path id="Feve" class="cls-2" d="M78,43c2.29,0,2.67-1.27,5.26-1.42,1.65-.09,2.89.37,3,0S84.91,40.45,85.06,40s2.93-.09,5.12.27c4,.66,4.06,1.05,5.93,1a3.42,3.42,0,0,1,1.76.21c1.57.76,1.95,3.11,2,3.5.24,1.47-.18,2,.33,3.44a4.29,4.29,0,0,0,.81,1.42,7.78,7.78,0,0,0,1.55,1.07,12.22,12.22,0,0,1,1.76,1.35A4,4,0,0,1,105.62,54c.16.56,0,.61.07,1.42.13,1.2.56,1.31.8,2.63.16.84,0,.89.21,1.75a13.51,13.51,0,0,0,.54,1.55c.42,1.26.31,1.39.67,2.3.11.27.32.69.74,1.55a13.91,13.91,0,0,1,.74,1.48c.27,1-.14,1.3.07,2.76a7.46,7.46,0,0,0,.2,1,5.93,5.93,0,0,0,.81,1.95c.08,0-.12-.81-.13-.81a21.75,21.75,0,0,1,.6,4.25c.06,1.86-.25,1.84-.27,3.78,0,2.37.45,2.4.61,5.39.1,1.92,0,4.07,0,4.58a11.44,11.44,0,0,0,0,3c.35,1.68,1.09,2,.94,3.24-.11,1-.64,1-.94,2.29a9.53,9.53,0,0,0,0,2.56,14,14,0,0,1-.27,3.91c-.28,1.11-.47,1-.94,2.7-.18.62-.3,1.17-.54,2.29A22.83,22.83,0,0,1,109,112c-.46,1.18-.86,1.27-1.21,2.42a13.27,13.27,0,0,0-.27,1.75c-.37,1.55-1.52,1.8-2.84,3.38-1.62,1.94-.65,2.46-2.29,4.31-1.12,1.26-1.92,1.41-2.83,3a10.71,10.71,0,0,1-.94,1.75c-1,1.17-1.69.89-2.7,2s-.67,1.58-1.48,2-1.19,0-2,.27-1,1.19-2.39,3.48c-1,1.66-1.11,1.41-1.82,2.73-.82,1.51-.75,1.94-1.52,3.13a10.65,10.65,0,0,1-1.92,2.23c-1.12,1-2.82,2.51-4.35,2.12-.35-.09-.72-.29-2.12-2.33-1.56-2.27-1.86-3.13-3.34-5.36-1-1.59-1.07-1.4-1.82-2.63-1.08-1.78-1.15-2.33-2-3.13s-1.25-.5-2.43-1.52a10.49,10.49,0,0,1-2.22-2.93c-.42-.76-.56-1.18-.81-1.72a18.2,18.2,0,0,0-3-4.25c-1.12-1.44-1.69-3.12-2.83-6.47-.39-1.13-.84-2.89-1.72-6.37-1-3.94-1.51-5.94-1.72-7.18a68.38,68.38,0,0,1-.71-7c-.27-3.74-.16-4.49,0-5.15.22-.89.57-1.79,1-3.74,0,0,.23-1,.4-2,.47-2.69.1-4.74,0-9.1-.09-4.59.25-5.88.51-6.67.57-1.72.94-1.62,1.42-3.24,1-3.57-.56-4.79.6-6.77s3.27-1.69,3.68-3.61c.21-1-.27-1.54.2-2.6s1.12-.88,1.75-1.88c1-1.51-.1-2.56.84-4.28a7.5,7.5,0,0,1,1.76-1.86A9.88,9.88,0,0,1,70.33,43a8.64,8.64,0,0,1,4.45-.68C76.7,42.43,76.52,43,78,43Z" transform="translate(-33.29 0.98)"/>
<path id="Ligne1" class="cls-3" d="M65.54,56.44a68.49,68.49,0,0,0-1.82,7c-.17.74-.36,1.66-.71,3-.41,1.61-.61,2.42-.71,2.73a7.07,7.07,0,0,0-.6,2.63c0,.73.23.67.3,1.52A5.83,5.83,0,0,1,61.6,76c-.35.82-.57.77-.91,1.51a7,7,0,0,0-.41,3c-.06,1.59-.18,1.07-.4,3.84-.13,1.62-.21,2.6-.21,3.94,0,1.79.17,3.92.21,4.45.12,1.74.2,2.08,0,2.73-.44,1.37-1.24,1.32-1.72,2.63-.36,1-.21,1.89.1,3.74.28,1.7.46,1.54.71,3,.31,1.93,0,2.42.4,4.34.07.34.47,2.45.81,2.43s.56-3.61.61-5c.15-4.65-.37-5.08.1-7.69.38-2.16.83-2.36.91-4.25s-.39-2.18-.51-4.65c-.12-2.64.42-2.62.31-5.56-.09-2.24-.42-2.6-.11-3.94a19.49,19.49,0,0,1,1.42-3.34C64,75.05,64.13,75,64.22,74.34,64.4,73.12,63.94,73,64,71c0-.89.14-1,.2-2.22a20,20,0,0,0,0-2.43C64.09,63.16,65.66,56.47,65.54,56.44Z" transform="translate(-33.29 0.98)"/>
<path id="Ligne_2" data-name="Ligne 2" class="cls-3" d="M76.76,45.42c-1.09-.12-2.61,6.19-4.45,13.85-1.65,6.89-.9,5.71-2.52,12.44-.91,3.75-1.44,5.32-1.22,7.89a27.12,27.12,0,0,1,.31,5.25c-.1,1.55-.28,1.59-.51,3.75a38.18,38.18,0,0,0-.2,5.76,39,39,0,0,0,.5,4.75c.44,2.73.72,2.89,1,5.16,0,.45,0,.49.3,4.55a34.49,34.49,0,0,0,.4,4.65,16.58,16.58,0,0,0,1.42,4c2.82,5.87,5.34,19.8,5.76,19.72s-.88-6.9-1.31-9.41c-.65-3.76-1.08-5.64-1.52-7.28a29.49,29.49,0,0,0-1.52-5c-.71-1.36-1.41-2.12-1.21-3.24s1.18-1.42,1.11-2.43-.77-.89-1.41-2.22a7.71,7.71,0,0,1-.61-2.93,22.29,22.29,0,0,1,0-2.84,25.53,25.53,0,0,0-.4-4.55c-.66-5.17,1.19-6.52.5-12.23a43.57,43.57,0,0,1-.6-4.45A27.66,27.66,0,0,1,71,74.88c.65-4.34,1.17-4.79,1.75-8.16,1.22-7.09-.39-9.23,1.89-12.14,1-1.34,2-1.63,2.63-3.3C78.26,48.67,77.52,45.5,76.76,45.42Z" transform="translate(-33.29 0.98)"/>
<path id="Ligne3" class="cls-3" d="M82.22,133.19c-.78-.08-.53-4.13-1.41-14.66-.44-5.27-.67-6.32-.61-9.31.06-2.49.26-3.71.41-8.29.09-3,0-3.63.1-5.36A70.1,70.1,0,0,1,82,84.65C84.2,72.31,81.84,61.27,83.51,61c1-.16,2.28,3.4,2.42,3.77.94,2.52.6,3.8.81,9,.11,2.54.17,1.77.54,8.09.19,3.11.28,4.67.27,5.53a42.82,42.82,0,0,1-1.08,8.76c-1.23,6.07-2.26,6.86-2.43,11.06a44.29,44.29,0,0,0,.14,5.12c.2,2.11.38,2.21.67,4.72a31.28,31.28,0,0,1,.27,6.61,23.49,23.49,0,0,1-.54,3.64C84.2,129,83,133.28,82.22,133.19Z" transform="translate(-33.29 0.98)"/>
<path id="Ligne4" class="cls-3" d="M91.83,129.15a76.74,76.74,0,0,0,5.06-15.78c.55-2.71,1-5.55,1.62-10.11.8-5.57.95-7.56,1-8.5a55.79,55.79,0,0,0,0-9.1c-.32-3.43-.76-4-1.52-9-.57-3.75-.57-5-.91-7.88-1.32-10.91-4.5-17.94-3.61-18.31.5-.2,1.79,1.9,2,2.29C97,55.28,96.9,56.89,97.93,61c.83,3.3,1.11,3,1.89,6.34.38,1.63.3,1.65,1.08,5.79s.91,4.42,1.21,6.48a35.14,35.14,0,0,1,.54,5.93c0,1.19-.08,1-.4,4.85-.27,3.17-.26,3.81-.54,6.88-.18,1.92-.27,2.9-.41,3.77a35.13,35.13,0,0,1-1.34,5.53C97.9,113,92,129.2,91.83,129.15Z" transform="translate(-33.29 0.98)"/>
<path id="Ligne5" class="cls-3" d="M102.75,119.94A96.28,96.28,0,0,0,106,108.42a99.17,99.17,0,0,0,1.82-11.63c.33-3.61.4-6.57.4-8.5a70.19,70.19,0,0,0-.91-12.74,60,60,0,0,0-1.41-6.37c-.57-2-1-3-2.83-8.12-2.39-6.59-2.57-7.28-2.43-7.35.31-.15,2.05,2.58,3.37,5.32a39.89,39.89,0,0,1,2.56,7.22,78.6,78.6,0,0,1,3,15.1s.32,3.63.27,7.28C109.59,103.9,102.86,120,102.75,119.94Z" transform="translate(-33.29 0.98)"/>
<path id="Decolobois" class="cls-4" d="M51.48,48.65c2.93-1,13.59-9.91,15.27-11.32-.18-.17-.46-.42-.81-.71a15.73,15.73,0,0,0-2.83-2.13c-1.4-.72-1.72-.28-2.73-1a5.38,5.38,0,0,1-1.51-1.82c-1.09-1.77-.74-2.42-1.72-3.84-.28-.39-1.33-1.91-2.33-1.72-.34.07-.6.42-1.11,1.11a30.49,30.49,0,0,1-2.23,2.94,4.54,4.54,0,0,1-2.42,1.51,6.71,6.71,0,0,1-1.32,0,12.9,12.9,0,0,0-3.34.41,5,5,0,0,0-2.12.91c-.56.46-.5.69-1.31,1.62a5.32,5.32,0,0,1-1.72,1.51,3.52,3.52,0,0,1-2.63,0L33.29,34.7v6.67c.16.34.75,1.53,1.71,1.62a3,3,0,0,0,1.52-.51c1-.5,1.18-.88,1.51-.81s.64.49.81,2c1.61.35,2,.4,2,.4,1.05.13,1,0,1.41.1.63.22.76.61,1.72,1.62s1.39,1.47,1.82,1.42c.59-.08.56-.89,1.52-1.52.41-.28,1.39-.76,1.92-.41.83.56-.18,2.67.71,3.34A1.73,1.73,0,0,0,51.48,48.65Z" transform="translate(-33.29 0.98)"/>
<path id="Decolobois2" class="cls-5" d="M42.52,13.93C41.58,15.31,41.11,16,41,17c0,.44,0,.77.95,3.91.57,1.93.63,2.07.81,2.3.89,1.14,2.35,1.38,3.77,1.61a8,8,0,0,0,3.37,0c1.86-.43,1.89-1.25,3.78-1.75.7-.19,2.68-.71,3.91.27.9.72.55,1.55,1.35,2,1.41.84,3.59-1.16,4.18-.54.43.46-.36,1.94-.54,1.89s.8-2.28,0-4.85c-.31-1-.58-1-1.08-2.56a16.94,16.94,0,0,1-.68-2.84,11.91,11.91,0,0,1-.13-3.64,9.36,9.36,0,0,1,.94-3.1c.71-1.36,1.18-1.36,2.83-3.37,2.05-2.48,2.24-3.6,2.3-4A3.14,3.14,0,0,0,66.38,0c-1.1-1.36-3.95-1.26-5.26,0-.65.63-.37,1-1.34,2.47C59,3.63,58.5,4.37,57.62,4.63s-1.35-.38-3.24-.27a7.57,7.57,0,0,0-1.62.27,7.48,7.48,0,0,0-2.15,1.08,10.62,10.62,0,0,0-1.35,1.08,14.51,14.51,0,0,0-1.48,1.48C45.55,10.76,44.22,11.44,42.52,13.93Z" transform="translate(-33.29 0.98)"/>
<path id="Decolobois3" class="cls-6" d="M107.78,0c-.87.64-2.22,1.65-3.91,2.88-4,2.88-3.93,2.7-4.59,3.37C97.35,8.19,97,9.6,95.1,10.16c-.88.26-1.06,0-1.89.4-1.64.75-1.77,2.06-3.1,2.29a2.05,2.05,0,0,1-1.89-.54c-.63-.76-.09-2-.4-2.15s-.76,1.36-1.89,1.62a1.64,1.64,0,0,1-1.75-.68c-.32-.67.34-1.56.67-2,1.24-1.67,2.7-1.62,3-2.83a2.33,2.33,0,0,0-.27-1.49c-.5-1.12-1.35-1.24-2-2.15A4,4,0,0,1,84.85,0Z" transform="translate(-33.29 0.98)"/></svg>