<svg id="fleurVanille" data-name="Calque 1" xmlns="http://www.w3.org/2000/svg" xmlns:xlink="http://www.w3.org/1999/xlink" viewBox="0 0 89.21 90.21"><defs><style>.cls-1,.cls-10,.cls-11,.cls-12,.cls-13,.cls-2,.cls-3,.cls-4,.cls-5,.cls-6,.cls-7,.cls-8,.cls-9{stroke:#000;stroke-miterlimit:10;}.cls-1,.cls-2,.cls-3,.cls-4,.cls-5,.cls-6,.cls-7,.cls-8{stroke-width:0.5px;}.cls-1{fill:url(#Dégradé_sans_nom_120);}.cls-2{fill:url(#Dégradé_sans_nom_119);}.cls-3{fill:url(#Dégradé_sans_nom_119-2);}.cls-4{fill:url(#Dégradé_sans_nom_119-3);}.cls-5{fill:url(#Dégradé_sans_nom_102);}.cls-6{fill:url(#Dégradé_sans_nom_102-2);}.cls-7{fill:url(#Dégradé_sans_nom_105);}.cls-8{fill:url(#Dégradé_sans_nom_71);}.cls-13,.cls-9{stroke-width:0.25px;}.cls-9{fill:url(#Dégradé_sans_nom_63);}.cls-10,.cls-11,.cls-12{stroke-width:0.1px;}.cls-10{fill:url(#Dégradé_sans_nom_121);}.cls-11{fill:url(#Dégradé_sans_nom_63-2);}.cls-12{fill:none;}.cls-13{fill:url(#Dégradé_sans_nom_118);}</style><radialGradient id="Dégradé_sans_nom_120" cx="83.8" cy="83.57" r="39.57" gradientUnits="userSpaceOnUse"><stop offset="0" stop-color="#dd9e1f"/><stop offset="0" stop-color="#c8951c"/><stop offset="0.01" stop-color="#a48617"/><stop offset="0.02" stop-color="#847813"/><stop offset="0.04" stop-color="#686d0f"/><stop offset="0.05" stop-color="#52640c"/><stop offset="0.06" stop-color="#415d0a"/><stop offset="0.08" stop-color="#365808"/><stop offset="0.11" stop-color="#2f5507"/><stop offset="0.18" stop-color="#2d5407"/></radialGradient><radialGradient id="Dégradé_sans_nom_119" cx="103.53" cy="77.78" r="3.11" gradientTransform="translate(0 -61.32) scale(1 1.79)" gradientUnits="userSpaceOnUse"><stop offset="0" stop-color="#dd9e1f"/><stop offset="0.01" stop-color="#c8951c"/><stop offset="0.03" stop-color="#a48617"/><stop offset="0.06" stop-color="#847813"/><stop offset="0.09" stop-color="#686d0f"/><stop offset="0.12" stop-color="#52640c"/><stop offset="0.16" stop-color="#415d0a"/><stop offset="0.21" stop-color="#365808"/><stop offset="0.28" stop-color="#2f5507"/><stop offset="0.46" stop-color="#2d5407"/></radialGradient><radialGradient id="Dégradé_sans_nom_119-2" cx="111.35" cy="74.86" r="12.6" gradientTransform="matrix(1, 0, 0, 1, 0, 0)" xlink:href="#Dégradé_sans_nom_119"/><radialGradient id="Dégradé_sans_nom_119-3" cx="139.15" cy="86.21" fx="154.75305202030958" r="33" gradientTransform="matrix(1, 0, 0, 1, 0, 0)" xlink:href="#Dégradé_sans_nom_119"/><radialGradient id="Dégradé_sans_nom_102" cx="103.44" cy="102.43" fx="81.41925990345842" fy="94.07407026356768" r="41.82" gradientTransform="translate(59.03 210.76) rotate(-95.64) scale(1 0.54)" gradientUnits="userSpaceOnUse"><stop offset="0" stop-color="#fff"/><stop offset="0.09" stop-color="#fefbf6"/><stop offset="0.23" stop-color="#faf0dc"/><stop offset="0.41" stop-color="#f3deb2"/><stop offset="0.63" stop-color="#ebc579"/><stop offset="0.87" stop-color="#e0a530"/><stop offset="0.92" stop-color="#dd9e1f"/><stop offset="0.94" stop-color="#da9d1f"/><stop offset="0.95" stop-color="#d2991d"/><stop offset="0.96" stop-color="#c3931c"/><stop offset="0.97" stop-color="#af8b19"/><stop offset="0.98" stop-color="#947f15"/><stop offset="0.99" stop-color="#737211"/><stop offset="1" stop-color="#4d610b"/><stop offset="1" stop-color="#2d5407"/></radialGradient><radialGradient id="Dégradé_sans_nom_102-2" cx="103.31" cy="105.14" fx="103.31491539009949" fy="105.14019899984851" r="5.32" gradientTransform="matrix(1, 0, 0, 1, 0, 0)" xlink:href="#Dégradé_sans_nom_102"/><radialGradient id="Dégradé_sans_nom_105" cx="102.74" cy="106.14" r="3.19" gradientUnits="userSpaceOnUse"><stop offset="0" stop-color="#fff"/><stop offset="0.06" stop-color="#fefbf6"/><stop offset="0.17" stop-color="#faf0dc"/><stop offset="0.3" stop-color="#f3deb2"/><stop offset="0.46" stop-color="#ebc579"/><stop offset="0.63" stop-color="#e0a530"/><stop offset="0.67" stop-color="#dd9e1f"/><stop offset="0.76" stop-color="#dc9f22"/><stop offset="0.81" stop-color="#dba22a"/><stop offset="0.86" stop-color="#d8a839"/><stop offset="0.9" stop-color="#d3b04d"/><stop offset="0.94" stop-color="#ceba68"/><stop offset="0.97" stop-color="#c7c688"/><stop offset="1" stop-color="#c0d3ab"/></radialGradient><radialGradient id="Dégradé_sans_nom_71" cx="122.11" cy="115.62" fx="86.69443907809787" r="39.72" gradientTransform="translate(128.66 250.01) rotate(-117.61) scale(1 0.49)" gradientUnits="userSpaceOnUse"><stop offset="0" stop-color="#dd9e1f"/><stop offset="0.02" stop-color="#c8951c"/><stop offset="0.08" stop-color="#a48617"/><stop offset="0.13" stop-color="#847813"/><stop offset="0.2" stop-color="#686d0f"/><stop offset="0.27" stop-color="#52640c"/><stop offset="0.35" stop-color="#415d0a"/><stop offset="0.45" stop-color="#365808"/><stop offset="0.6" stop-color="#2f5507"/><stop offset="1" stop-color="#2d5407"/></radialGradient><radialGradient id="Dégradé_sans_nom_63" cx="84.23" cy="109.09" fx="73.47236689128917" fy="134.58306115839318" r="27.67" gradientTransform="translate(0 -37.16) scale(1 1.34)" gradientUnits="userSpaceOnUse"><stop offset="0" stop-color="#dd9e1f"/><stop offset="0.02" stop-color="#d0991d"/><stop offset="0.08" stop-color="#aa8818"/><stop offset="0.14" stop-color="#887a13"/><stop offset="0.22" stop-color="#6c6e10"/><stop offset="0.3" stop-color="#54650c"/><stop offset="0.39" stop-color="#435d0a"/><stop offset="0.5" stop-color="#365808"/><stop offset="0.65" stop-color="#2f5507"/><stop offset="1" stop-color="#2d5407"/></radialGradient><linearGradient id="Dégradé_sans_nom_121" x1="41.11" y1="52.25" x2="41.93" y2="52.25" xlink:href="#Dégradé_sans_nom_120"/><radialGradient id="Dégradé_sans_nom_63-2" cx="109.29" cy="112.17" fx="109.29366302490234" fy="112.1718864440918" r="2.88" gradientTransform="translate(-66.8 -100.51) scale(1 1.34)" xlink:href="#Dégradé_sans_nom_63"/><radialGradient id="Dégradé_sans_nom_118" cx="111.63" cy="109.4" r="7.58" gradientUnits="userSpaceOnUse"><stop offset="0" stop-color="#fff"/><stop offset="0.05" stop-color="#fefbf6"/><stop offset="0.14" stop-color="#faf0dc"/><stop offset="0.26" stop-color="#f3deb2"/><stop offset="0.39" stop-color="#ebc579"/><stop offset="0.54" stop-color="#e0a530"/><stop offset="0.57" stop-color="#dd9e1f"/></radialGradient></defs>

<title>fleurVanille</title>

<path id="Feuille_Gauche" data-name="Feuille Gauche" class="cls-1" d="M98,77.27c-.37,0-.9,0-1.52.1a14.41,14.41,0,0,0-2.12.41c-1.18.37-1.51,1.07-3.74,3.43a29.51,29.51,0,0,1-2.13,2.13,18.52,18.52,0,0,1-3.94,2.53c-1.26.6-1.45.51-3.64,1.51a14.78,14.78,0,0,0-2.12,1.11,9.77,9.77,0,0,0-2.23,1.93,14.52,14.52,0,0,0-1.72,2.83,6,6,0,0,1-1.51,2.22,3.72,3.72,0,0,1-1,.61,4.22,4.22,0,0,1-3.43-.51c-.46-.24-1.94-1-1.82-1.82.06-.43.55-.7,1.11-1a8.05,8.05,0,0,1,2-.71c1.29-.38,2-1.47,3-3A18.34,18.34,0,0,0,75,85.16c1.32-3.56,1-4.55,2.33-6.17a11.49,11.49,0,0,1,2.23-1.92,17.32,17.32,0,0,1,4.85-2.73c2-.72,3-1.09,4.35-.81.81.17,1.28.49,2,.3,1-.24.93-1,2-1.82a7.19,7.19,0,0,1,5.36-1l.36.08a4,4,0,0,1,1.06.41,2.32,2.32,0,0,1,.81.72c.37.67-.11,1.55-.61,2.53A10.42,10.42,0,0,1,98,77.27Z" transform="translate(-66.8 -62.3)"/>
<path class="cls-2" d="M99.28,76.63a25.87,25.87,0,0,1,3.78,1.55,4.71,4.71,0,0,0,2,.74,4.11,4.11,0,0,0,2.7-1" transform="translate(-66.8 -62.3)"/>

<path class="cls-3" d="M101.37,66a17.47,17.47,0,0,1,2.56,3.24c1.44,2.35,1.13,3.14,2.7,5.39a38,38,0,0,0,2.38,3l.86.91.63.67c.11.11.64.65,1.32,1.29a23.32,23.32,0,0,0,3,2.56,12,12,0,0,1,1.85,1.33c.38.35.37.4.83.83a4.79,4.79,0,0,0,1.89,1.28,6.66,6.66,0,0,0,1.21.07c1.73,0,2.21.09,2.23,0s-.51-.33-.54-.27.82,1,1.42.81a1,1,0,0,0,.53-.88,1.57,1.57,0,0,0-.26-.81,6.52,6.52,0,0,1-.54-1.75,10.75,10.75,0,0,1-.14-1.62c-.12-1.51-.24-1.52-.27-2.49a10.57,10.57,0,0,0,0-1.82,10.05,10.05,0,0,0-.71-1.9c-.28-.63-.33-.71-.57-1.27-.51-1.19-.5-1.37-.74-1.89a11.45,11.45,0,0,0-1.82-2.29,19.81,19.81,0,0,0-2-2,17.15,17.15,0,0,0-2.29-1.61c-.39-.25-.94-.55-2-1.15l-2.09-1.15A16.33,16.33,0,0,0,107,62.94a14.82,14.82,0,0,0-2.3-.33,5.26,5.26,0,0,0-2.09.06,3.39,3.39,0,0,0-1.21.61,4.07,4.07,0,0,0-.94,1.42c-.63,1.2-1,1.8-1.06,2.1a13.72,13.72,0,0,0-.63,2.14c-.13.6-.22,1.11-.27,1.49" transform="translate(-66.8 -62.3)"/>

<path class="cls-4" d="M124.8,86.67c.56.86,1.36.65,5,1.62l2.84.81c1.52.44,2.39.71,3,.91,1.5.47,2.24.7,2.73.91A18.54,18.54,0,0,0,140.88,92c1.17.34,1.36.08,2.22.41s.94.66,2.23,1.72a21.12,21.12,0,0,0,3.13,2.12A7.07,7.07,0,0,0,151,97.39c1.13.13,1.29-.32,2.83-.2.78.06,1.26.22,1.62-.1a1.34,1.34,0,0,0,.3-1.11,1.74,1.74,0,0,0-.61-1,7.93,7.93,0,0,0-2.22-1.32c-.86-.47-1.49-1.46-2.73-3.44a22.92,22.92,0,0,0-1.42-2.32,17.66,17.66,0,0,0-2.32-2.23c-1.28-1.13-1.92-1.69-2.33-2a35.51,35.51,0,0,0-3.33-2.33c-2.17-1.37-2.36-1.33-4.66-2.73-3.3-2-3.46-2.41-5.05-2.93a9.11,9.11,0,0,0-4-.61,12,12,0,0,1-2.32.31c-1.08,0-1.59-.24-1.92.1s-.24,1-.11,1.82.34.92.51,1.82,0,1,.2,2c.12.59.19.62.41,1.52.16.69.2,1,.3,1.52A7.66,7.66,0,0,0,124.8,86.67Z" transform="translate(-66.8 -62.3)"/>

<path id="fleur" class="cls-5" d="M98.47,77.51c-.55.48-.17,1-.67,4.38-.19,1.26-.28,1.4-.47,2.83s-.3,2.22-.34,3a5.94,5.94,0,0,1-.2,2.09c-.24.56-.55.82-1.52,1.69a21.32,21.32,0,0,0-2.43,2.32A6,6,0,0,0,92.13,97a13.53,13.53,0,0,0,.31,2.32c.5,2.86.76,4.29.81,4.45a2,2,0,0,1,0,1.42c-.2.4-.53.51-.51.81s.44.33.71.81,0,.49.2,1.21a2.67,2.67,0,0,0,.56,1.21c.34.38.61.39.61.56s-.79.31-1.88.86c-.68.35-1.36.69-1.51,1.32a6.71,6.71,0,0,1-.15.85,3,3,0,0,1-.36.76c-.31.47-.52.45-.71.76a1.79,1.79,0,0,0-.05,1.32c.23.78.71.88.91,1.77a1.59,1.59,0,0,1,0,.6c0,.48-.27.62-.4,1a2.22,2.22,0,0,0,.15,1.52c.21.54.46.65.61,1.26.08.37,0,.38.1.56.21.43.63.4,1.21.91a4,4,0,0,1,.51.56c.32.41.35.56.76,1.16a5.45,5.45,0,0,0,.6.81,4.18,4.18,0,0,0,1,.66,14.14,14.14,0,0,0,2,1.06,4.2,4.2,0,0,0,1.36.25c.4,0,.38-.07.86-.1.94-.06,1.17.18,1.77,0a1.48,1.48,0,0,0,.71-.4c.24-.27.21-.47.45-1.07s.4-1,.66-1,.28.37.76.61c.26.13.69.23.86,0s-.11-.76,0-.86.37.19.71.4a3.43,3.43,0,0,0,1.67.51,4.68,4.68,0,0,0,1.82-.2A12,12,0,0,0,111,125a9,9,0,0,0,1.42-.81,2.85,2.85,0,0,0,.81-.71c.23-.34.26-.64.51-.71s.28.09.5.16c.54.15,1.11-.29,1.47-.56s1.06-.81,1-1.36-.61-.64-.61-1.22c0-.27.12-.26.25-.71a2.86,2.86,0,0,0,0-1.72c-.14-.4-.3-.47-.25-.7s.52-.39.61-.76-.18-.36-.3-.86.05-.62,0-1.27c0-.48-.15-.44-.26-1.06s0-.67-.1-1.51a3.65,3.65,0,0,0-.35-1.37,3.34,3.34,0,0,0-.41-.56,2.18,2.18,0,0,0-.81-.6c-.33-.13-.38,0-.86-.15a3.73,3.73,0,0,1-.8-.36c-.51-.26-.89-.47-.86-.65s.17-.11.55-.36a1.69,1.69,0,0,0,.51-.45,1.11,1.11,0,0,0,.2-.56,1,1,0,0,0-.2-.61c-.19-.28-.33-.29-.61-.55a4,4,0,0,1-.61-.86,2.15,2.15,0,0,1-.4-.91,2.36,2.36,0,0,1,.15-.66,3.51,3.51,0,0,0,0-1.21,6.38,6.38,0,0,1,.12-1.57,21.79,21.79,0,0,0,.2-2.78A7.88,7.88,0,0,0,111,93.7c-1-2.27-2.71-5.32-3.69-5-.35.09-.52.62-1.26.81a1.65,1.65,0,0,1-.66.05c-.83-.22-1-2.38-1.06-4.1-.19-4.6.33-5.11-.3-6.17C102.84,77.29,99.59,76.52,98.47,77.51Z" transform="translate(-66.8 -62.3)"/>

<path id="interieurFleur" class="cls-6" d="M98.81,107.91c-.32-.83,0-1-.34-2.22-.29-.94-.67-1.31-.54-2,0-.12.14-.71.54-.87s.51.14,1,.13a1.88,1.88,0,0,0,1.15-.47c.47-.42.29-.73.81-1.35a3.26,3.26,0,0,1,.94-.74,1.86,1.86,0,0,1,1.42-.4c.25.07.35.23.67.6a15,15,0,0,0,1.62,1.55,6.21,6.21,0,0,0,1.35,1c.62.3.92.29,1.14.6.08.1.24.37.07,1.42a5.53,5.53,0,0,1-.94,2.63,7.76,7.76,0,0,1-1.15,1.14c-.39.34-.76.62-.94.75a5.11,5.11,0,0,1-4.86.27A4,4,0,0,1,98.81,107.91Z" transform="translate(-66.8 -62.3)"/>

<path id="interieur" class="cls-7" d="M105.15,109.19c.87-3,1.06-5.2.81-5.39a2.3,2.3,0,0,0-.68-.34h0s-1-.26-1.58-.33a6,6,0,0,0-2.22.27,6.33,6.33,0,0,0-2,1.08l1.41,4.72Z" transform="translate(-66.8 -62.3)"/>

<path id="feuilleBasDroite" class="cls-8" d="M108.11,79.09c.8.31,1.19,1.86,1.92,5,.44,1.84.43,2.16.91,4.25.16.7.25,1,1.12,4.35,1.21,4.64,1.27,4.86,1.41,5.36.38,1.3.86,2.93,1.62,5a30.58,30.58,0,0,0,2.93,6.37c.77,1.18.86,1,3.64,4.24a54.42,54.42,0,0,1,5.26,6.58c.31.49,1.09,1.94,2.63,4.85,1.34,2.51,2,3.79,2.43,4.75,1,2.23.84,2.58,2,5.36.5,1.2.94,2.11,1.62,3.54,1.36,2.88,1.55,3,2.12,4.45.85,2.13.43,1.79,1.32,4.05.77,2,1.37,2.94.91,3.94a2.18,2.18,0,0,1-1,1c-1.26.56-2.83-.47-3.65-1-7.39-4.87-6.63-4.17-7.28-4.75-5.29-4.77-8.08-7-10.72-10.42-2.2-2.86-4.42-6.41-5.29-7.79-.26-.41-1.79-1.56-1.48-2.42.19-.54.86-.42,1.92-1.42.67-.62.7-1,1.21-1.11.67-.21,1,.23,1.62,0A2.12,2.12,0,0,0,116.4,122c.2-.46.15-.71.11-2.13a23.42,23.42,0,0,1,0-2.53c.07-1.08.18-1,.2-1.82a19,19,0,0,0-.31-2.73,11,11,0,0,0-.4-2.32,3.1,3.1,0,0,0-.51-1.11,4,4,0,0,0-1.71-1.12c-.85-.35-1.28-.35-1.32-.6s.79-.55.91-1.22c0-.18,0-.41-.4-1.11-.68-1.14-1-1.15-1.22-1.72s0-.74,0-2.53c0-1-.08-1-.1-2.22,0-1.77.18-1.68.1-2.63a9.35,9.35,0,0,0-1.11-3.44,12,12,0,0,0-1.21-2c-.79-1-1.35-1.79-2.13-1.82s-1.28.82-1.72.61-.21-.92-.4-2.23a18.86,18.86,0,0,0-.61-2.22c-.4-1.68-.65-2.68-.3-3.64C104.83,79.87,106.86,78.61,108.11,79.09Z" transform="translate(-66.8 -62.3)"/>

<path id="feuilleBasGauche" class="cls-9" d="M93.65,124.8c.28,1.14-.58,2.26-2.73,4.55a64.29,64.29,0,0,1-8,7.58c-3.8,3-5.61,4-6.67,3.44-.62-.35-.72-1.1-1.72-1.41a19.5,19.5,0,0,0-2.33-.21,3.15,3.15,0,0,1-1.31-.3c-.86-.61-.66-2.34-.51-3.24C71.46,129,75.45,122,75.45,122c4.68-8.29,7-12.47,8.59-14.36a35.2,35.2,0,0,0,4-5.46,29.83,29.83,0,0,0,3.34-8.9c.18-.93.35-2.75.7-6.37.21-2.16.85-4.24,1.22-6.37a3.47,3.47,0,0,1,.91-2.13c1.09-1,2.84-.75,3.54-.6v4.34c1,5,.07,7.08-1,8a17.73,17.73,0,0,0-2.13,1.62A7.62,7.62,0,0,0,92.44,95a24.38,24.38,0,0,0-.2,2.63c-.19,3.14-.2,3.77.2,4.55a4.71,4.71,0,0,1,.6,1.21,11.93,11.93,0,0,1,.11,2.12,7.49,7.49,0,0,0,.3,1.52,15.48,15.48,0,0,0,.81,2.12,15.42,15.42,0,0,1-1.11,1.52c-.9,1-1.36.65-1.82,1.42-.3.48-.11.6-.51,1.61s-.53.86-.61,1.32c-.11.74.32,1,.61,2.22A16.61,16.61,0,0,1,91,119a19.73,19.73,0,0,0,.31,2.23C91.8,123.26,93.33,123.49,93.65,124.8Z" transform="translate(-66.8 -62.3)"/>

<line class="cls-10" x1="41.11" y1="47.43" x2="41.93" y2="57.07"/>

<line class="cls-11" x1="41.52" y1="46.42" x2="43.47" y2="53.33"/>

<line class="cls-12" x1="35.04" y1="51.21" x2="35.04" y2="54.85"/>

<line class="cls-12" x1="28.03" y1="48.91" x2="28.03" y2="52.25"/>

<path class="cls-12" d="M93,122.81a6.1,6.1,0,0,1,2.5-1,5.82,5.82,0,0,1,1.21-.07" transform="translate(-66.8 -62.3)"/>

<path class="cls-12" d="M108.25,120.65a2.11,2.11,0,0,0,.33,1.08,2.6,2.6,0,0,0,2.7.88" transform="translate(-66.8 -62.3)"/>

<path class="cls-13" d="M110.27,108.38c-.11.73-.44.69-.54,1.49a3.52,3.52,0,0,0,.4,2c.39.68.67.56,1,1.28.27.56.19.83.54,1.21s.74.62,1,.47.13-.46.4-1.14a2.92,2.92,0,0,1,.29-.57,1.13,1.13,0,0,1,.12-.17c.15-.3-.12-.72-.75-1.82,0,0-.13-.24-.4-.81s-.27-.61-.2-.74.58-.2.6-.34-.55-.27-1.07-.68c-.77-.59-1.25-1.68-1-2l0,0c.37-.34,1,.09,1.25-.11s0-.94,0-1c-.33-1-1.36-1.64-1.55-1.49s0,.55.2.95.35.66.27.81-.68,0-.94.2S110.47,107.13,110.27,108.38Z" transform="translate(-66.8 -62.3)"/>

</svg>