<svg id="RegleFinale" xmlns="http://www.w3.org/2000/svg" viewBox="0 0 22 158">
<defs>
<style>.cls-1{fill:none;stroke:#702f2f;stroke-miterlimit:10;}</style>
</defs><title>RegleFinale</title>
<path id="Trace" class="cls-1" 
d="M10.62,146.92V146l10.88.06v-17h-11v-.93l11,.06v-17h-11v-.93l11,.06V74h-11v-.93l11,.06v-17h-11V55.2l11,.06v-8h-11v-.93l11,.06V38.28h-11v-.92l11,.06V29.36h-11v-.93l11,.06V20.43h-11V19.5l11,.06V11.5h-11v-.93l11,.06V.5H.5v157h21V146.92Zm10.76-45.69h-11v-.92l11,.06Zm0-18.72v.87h-11v-.93ZM10.26,64.14l11,.06v.87h-11Zm-.12,27.24,11,.06v.87h-11Zm.12,27.83,11,.06v.87h-11Zm.12,17.86,11,.06V138h-11Z"/>
</svg>