<svg id="RegleFin" xmlns="http://www.w3.org/2000/svg" viewBox="0 0 22 158.5"><defs><style>.cls-1{fill:none;stroke:#702f2f;stroke-miterlimit:10;}</style>
</defs>
<title>RegleFin</title>
<path id="Trace" class="cls-1" 
d="M10.62,146.89V146L21.5,146V129h-11V128l11,.06V111h-11v-.93l11,.06V73.73h-11V72.8l11,.06v-17h-11v-.94l11,.06v-8h-11V46l11,.06V37.9h-11V37l11,.06V29h-11V28l11,.06V20h-11v-.93l11,.06V11h-11V10.1l11,.06V0H.5V157.5h21V146.89Zm10.76-45.84h-11v-.92l11,.06Zm0-18.78v.87h-11v-.93ZM10.26,63.84l11,.06v.88h-11Zm-.12,27.33,11,.06v.87h-11Zm.12,27.92,11,.06V120h-11ZM10.38,137l11,.07v.87h-11Z" 
transform="translate(0 0.5)"/>
</svg>