<svg id="RegleDeb" xmlns="http://www.w3.org/2000/svg" viewBox="0 0 22 5.63"><defs><style>.cls-1{fill:none;stroke:#702f2f;stroke-miterlimit:10;}</style>
</defs>
<title>RegleDeb</title>
<path id="Trace" class="cls-1" 
d="M10.62,157.19v0H21.5v-.5h-11v0h11v-.5h-11v0h11V155h-11v0h11v-.5h-11v0h11v-.23h-11v0h11V154h-11v0h11v-.24h-11v0h11v-.24h-11v0h11v-.24h-11v0h11v-.29H.5v4.63h21v-.31Zm10.76-1.35h-11v0h11Zm0-.55v0h-11v0Zm-11.12-.55h11v0h-11Zm-.12.81h11v0h-11Zm.12.82h11v0h-11Zm.12.53h11v0h-11Z" 
transform="translate(0 -152.37)"/>
</svg>